<?xml version="1.0" encoding="utf-8"?>
<!-- Generator: Adobe Illustrator 24.1.3, SVG Export Plug-In . SVG Version: 6.00 Build 0)  -->
<svg version="1.1" xmlns="http://www.w3.org/2000/svg" xmlns:xlink="http://www.w3.org/1999/xlink" x="0px" y="0px"
	 viewBox="0 0 425.2 161.6" style="enable-background:new 0 0 425.2 161.6;" xml:space="preserve">
<style type="text/css">
	.Arched_x0020_Green{fill:url(#SVGID_1_);stroke:#FFFFFF;stroke-width:0.25;stroke-miterlimit:1;}
	.st0{fill:#034182;}
	.st1{opacity:0.8;fill:#034182;}
	.st2{opacity:0.6;fill:#034182;}
	.st3{opacity:0.4;fill:#034182;}
	.st4{opacity:0.2;fill:#034182;}
</style>
<linearGradient id="SVGID_1_" gradientUnits="userSpaceOnUse" x1="0" y1="0" x2="0.7071" y2="-0.7071">
	<stop  offset="0" style="stop-color:#25A852"/>
	<stop  offset="0.9831" style="stop-color:#24381D"/>
</linearGradient>
<g id="_x2022__x2022__x2022__x2022__x2022__-_beeldmerk">
	<path class="st0" d="M370.2,53.2c0,5.9-4.8,10.6-10.6,10.6c-5.9,0-10.6-4.8-10.6-10.6c0-5.9,4.8-10.6,10.6-10.6
		C365.5,42.6,370.2,47.4,370.2,53.2z"/>
	<path class="st1" d="M349,53.2c0,5.9-4.8,10.6-10.6,10.6c-5.9,0-10.6-4.8-10.6-10.6c0-5.9,4.8-10.6,10.6-10.6
		C344.2,42.6,349,47.4,349,53.2z"/>
	<path class="st2" d="M327.7,53.2c0,5.9-4.8,10.6-10.6,10.6c-5.9,0-10.6-4.8-10.6-10.6c0-5.9,4.8-10.6,10.6-10.6
		C322.9,42.6,327.7,47.4,327.7,53.2z"/>
	<path class="st3" d="M306.4,53.2c0,5.9-4.8,10.6-10.6,10.6c-5.9,0-10.6-4.8-10.6-10.6c0-5.9,4.8-10.6,10.6-10.6
		C301.7,42.6,306.4,47.4,306.4,53.2z"/>
	<path class="st4" d="M285.2,53.2c0,5.9-4.8,10.6-10.6,10.6c-5.9,0-10.6-4.8-10.6-10.6c0-5.9,4.8-10.6,10.6-10.6
		C280.4,42.6,285.2,47.4,285.2,53.2z"/>
</g>
<g id="TIE_KINETIX_-_woordlogo">
	<g>
		<path class="st0" d="M77.7,79.1h-16v39.8h-3.3V79.1h-16v-2.7h35.2V79.1z"/>
		<path class="st0" d="M88.3,118.8H85V76.3h3.3V118.8z"/>
		<path class="st0" d="M122.5,79.1h-19.9v17H122v2.7h-19.4v17.3H123v2.7H99.3V76.3h23.2V79.1z"/>
		<path class="st0" d="M182,118.8h-8.4l-21.6-21v21h-6.1V76.3h6.1v19.4l17.9-19.4h7.6L159,96.5L182,118.8z"/>
		<path class="st0" d="M193.1,118.8H187V76.3h6.1V118.8z"/>
		<path class="st0" d="M242,118.8h-5.2l-28.4-32.7v32.7h-5.7V76.3h4.9l28.8,32.9V76.3h5.7V118.8z"/>
		<path class="st0" d="M275.6,81.8h-18v12.8H275v5.5h-17.4v13.2h18.6v5.5h-24.7V76.3h24.1V81.8z"/>
		<path class="st0" d="M317.7,81.8H303v37h-6.1v-37h-14.7v-5.5h35.5V81.8z"/>
		<path class="st0" d="M330.8,118.8h-6.2V76.3h6.2V118.8z"/>
		<path class="st0" d="M364.6,96.8l18.1,22h-7.4l-14.5-17.6l-14.7,17.6h-7.4l18.3-22l-17-20.5h7.4l13.3,16.2l13.3-16.2h7.4
			L364.6,96.8z"/>
	</g>
</g>
</svg>
